<svg width="80.846375" height="80.846375" viewBox="0 0 80.8464 80.8464" fill="none" xmlns="http://www.w3.org/2000/svg" xmlns:xlink="http://www.w3.org/1999/xlink">
	<desc>
			Created with Pixso.
	</desc>
	<defs>
		<clipPath id="clip1_31">
			<rect id="Icon/large/play-white" width="80.846390" height="80.846390" fill="white" fill-opacity="0"/>
		</clipPath>
	</defs>
	<rect id="Icon/large/play-white" width="80.846390" height="80.846390" fill="#FFFFFF" fill-opacity="0"/>
	<g clip-path="url(#clip1_31)">
		<path id="Vector" d="M40.42 0C18.13 0 0 18.13 0 40.42C0 62.71 18.13 80.84 40.42 80.84C62.71 80.84 80.84 62.71 80.84 40.42C80.84 18.13 62.71 0 40.42 0ZM40.42 77.47C19.99 77.47 3.36 60.85 3.36 40.42C3.36 19.99 19.99 3.36 40.42 3.36C60.85 3.36 77.47 19.99 77.47 40.42C77.47 60.85 60.85 77.47 40.42 77.47Z" fill="#FFFFFF" fill-opacity="1.000000" fill-rule="nonzero"/>
		<path id="Vector" d="M56.49 39L32.91 23.84C32.39 23.51 31.72 23.49 31.19 23.78C30.65 24.08 30.31 24.64 30.31 25.26L30.31 55.58C30.31 56.19 30.65 56.76 31.19 57.06C31.44 57.19 31.72 57.26 32 57.26C32.31 57.26 32.63 57.17 32.91 56.99L56.49 41.83C56.97 41.53 57.26 40.99 57.26 40.42C57.26 39.85 56.97 39.31 56.49 39ZM33.68 52.49L33.68 28.35L52.46 40.42L33.68 52.49Z" fill="#FFFFFF" fill-opacity="1.000000" fill-rule="nonzero"/>
	</g>
</svg>
